<?xml version="1.0" encoding="utf-8"?>
<!-- Generator: Adobe Illustrator 22.0.1, SVG Export Plug-In . SVG Version: 6.00 Build 0)  -->
<svg version="1.1" id="Layer_1" xmlns="http://www.w3.org/2000/svg" xmlns:xlink="http://www.w3.org/1999/xlink" x="0px" y="0px"
	 viewBox="0 0 1600 1200" style="enable-background:new 0 0 1600 1200;" xml:space="preserve">
<style type="text/css">
	.st0{fill:#EE630A;}
</style>
<g>
	<polygon points="630.2,593.4 594.3,544.1 569.3,544.1 569.3,658.8 591,658.8 591,575.4 627.5,625.4 631.8,625.4 669.2,575.6 
		669.2,658.8 690.8,658.8 690.8,544.1 666.1,544.1 	"/>
	<path d="M794.6,577.9h-19.2l-0.7,11.1c-4.6-8-14.9-13.1-25.7-13.1c-23.6-0.2-42.1,14.4-42.1,42.3c0,28.4,17.7,43.1,41.6,42.9
		c9-0.2,21.6-4.8,26.2-14.3l1,11.8h18.9V577.9z M750.8,642.8c-13.3,0-23.9-9.2-23.9-24.6c0-15.4,10.7-24.4,23.9-24.4
		C782.3,593.8,782.3,642.8,750.8,642.8z"/>
	<path d="M812.9,554.9c0,15.6,23.6,15.6,23.6,0C836.5,539.3,812.9,539.3,812.9,554.9z"/>
	<path d="M814.7,675.9c0,8.9-1.5,13.9-8,14.3c-3,0.2-6.2-0.7-9.7-2.3l-7.2,15.6c5.7,3.8,12,5.4,17.9,5.4c18.2,0,26.9-13,26.9-32.9
		v-98.4h-19.8V675.9z"/>
	<rect x="851.6" y="577.5" width="20" height="81.1"/>
	<path d="M849.8,555.1c0,15.6,23.6,15.6,23.6,0S849.8,539.5,849.8,555.1z"/>
	<path d="M953.6,588.8c-4.8-8.4-18-13-26.6-13c-23.6,0-41.1,14.4-41.1,42.3c0,26.6,17.9,42.3,41.6,42.3c9.8,0,19.8-3.3,26.1-13
		l1.3,11.1h18.7V544.1h-20V588.8z M928.8,642c-12.8,0-22.9-9.7-22.9-23.8c0-14.6,10.2-23.6,22.9-23.6c12.6,0,23.4,9.5,23.4,23.6
		C952.3,632.8,941.4,642,928.8,642z"/>
	<polygon points="1077.8,544.1 986,544.1 986,552 1027.5,552 1027.5,658.7 1036.4,658.7 1036.4,552 1077.8,552 	"/>
	<path d="M1107.5,576.4c-22.8,0-41.1,17.5-41.1,41.8c0,25.7,18.4,41.6,41.1,41.6c13,0,27-5.2,34.9-15.6l-5.7-4.6
		c-6.1,8-18.5,12.3-29.2,12.3c-16.7,0-31.3-11-32.9-30h72.9C1150.6,590.3,1130.3,576.4,1107.5,576.4z M1074.5,614.9
		c1.8-19.8,16.2-31.1,32.9-31.1c19.5,0,32.6,11.1,32.8,31.1H1074.5z"/>
	<path d="M1205.2,584.4c8.7,0,17.7,3.1,24.3,9.7l5.2-5.1c-8.2-8-18.9-12.1-29.5-12.1c-23.4,0-41.6,15.7-41.6,41.3
		s18.9,41.3,41.6,41.3c10.7,0,21.3-3.9,29.5-12.1l-5.4-5.4c-6.6,6.6-15.4,10-24.1,10c-18.4,0-33.8-12-33.8-33.8
		C1171.4,596.4,1186.8,584.4,1205.2,584.4z"/>
	<path d="M1288,576.5c-11.3,0.2-22.6,4.6-29.2,16.2v-48.9h-7.7v114.7h8v-44.4c0-16.9,11.8-30,28.8-30c18.2,0,26.1,11.3,26.1,28v46.4
		h7.9v-46.4C1321.9,591.1,1310.6,576.5,1288,576.5z"/>
	<g>
		<path class="st0" d="M1110.9,555.4c0,5.3,8,5.3,8,0C1118.9,550.1,1110.9,550.1,1110.9,555.4z"/>
		<path class="st0" d="M1136.6,553.2c-4.2,0-7.8-2.8-7.8-8c0-4.8,3.3-8.1,7.9-8.1c1.9,0,3.9,0.7,5.5,2.2l4.3-4.5
			c-3-2.9-6-4.1-9.9-4.1c-8,0-14.6,4.8-14.6,14.5c0,9.7,6.6,14.5,14.6,14.5c4.1,0,7.4-1.2,10.6-4.3l-4.6-4.5
			C1141,552.6,1138.8,553.2,1136.6,553.2z"/>
		<path class="st0" d="M1163.7,530.9c-8.7,0-14.2,6.5-14.2,14.3c0,7.9,5.3,14.3,14.2,14.3c8.9,0,14.3-6.4,14.3-14.3
			C1178,537.4,1172.4,530.9,1163.7,530.9z M1163.7,553.3c-5,0-7.5-3.9-7.5-8.1c0-4.1,2.6-8.1,7.5-8.1c4.6,0,7.5,4,7.5,8.1
			C1171.2,549.4,1168.7,553.3,1163.7,553.3z"/>
		<path class="st0" d="M1214,531.1c-3.6,0-6.7,1.1-9.2,5c-1.6-3.8-4.8-5.1-8.1-5.1c-2.6,0-5.8,1-7.2,3.8l-0.5-3.3h-6.3v27.5h6.8
			v-14.7c0-3.6,2.2-6.9,5.8-6.9c3.7,0,5.6,3.3,5.6,6.9v14.7h6.8v-14.7c0-3.6,2.3-6.8,6-6.8c3.7,0,5.2,3.1,5.2,6.7v14.8h6.8v-14.8
			C1225.7,535.9,1221.8,531.1,1214,531.1z"/>
		<rect x="303.7" y="539.9" class="st0" width="0" height="0"/>
		<path class="st0" d="M278.1,712h238V488h-238V712z M303.5,575.8l80.9,80.9v29.9h-80.9V575.8z M490.7,686.6h-80.9v-29l80.9-80.7
			V686.6z M303.5,532v-18.5h187.2V533v4.9v3.2v0.1l-0.1,0l-0.1,0v0l-22.1,22.1h0l-58.6,58.5v-58.5h28.5l21.2-21.2l0,0l4-4.2H331.7
			l1.5,1.6l1.9,1.9l0,0l21.9,21.9h27.4v57.5l-57.5-57.5h0l-7.2-7.1l-16-16l0,0l0,0l0,0l-0.2-0.2l0,0l0,0v0v-1.8v-0.2V532z"/>
	</g>
</g>
</svg>
